<svg id="Layer_1" data-name="Layer 1" xmlns="http://www.w3.org/2000/svg" viewBox="0 0 366.51 191"><defs><style>.cls-1{fill:#231f20;}.cls-2{fill:#f79410;}.cls-3{fill:#ff5f00;}.cls-4{fill:#eb001b;}.cls-5{fill:#f79e1b;}.cls-6{fill:#00579f;}.cls-7{fill:#faa61a;}.cls-8{fill:#253b80;}.cls-9{fill:#179bd7;}.cls-10{fill:#222d65;}.cls-11{fill:none;}.cls-12{fill:#fff;}.cls-13{fill:#d50072;}</style></defs><title>payment-method</title><path class="cls-1" d="M112.6,95.93v.2h.19l.11,0a.1.1,0,0,0,0-.16l-.11,0Zm.2-.15a.36.36,0,0,1,.22.07.19.19,0,0,1,.08.18.23.23,0,0,1-.06.16.3.3,0,0,1-.18.07l.25.29h-.2l-.23-.28h-.08v.28h-.16v-.77Zm0,1a.7.7,0,0,0,.25,0,.9.9,0,0,0,.2-.14.77.77,0,0,0,.14-.21.65.65,0,0,0,0-.5.77.77,0,0,0-.14-.21.86.86,0,0,0-.2-.13.53.53,0,0,0-.25,0,.66.66,0,0,0-.46.18.6.6,0,0,0-.14.21.65.65,0,0,0,0,.5.67.67,0,0,0,.34.35.75.75,0,0,0,.26,0m0-1.48a.78.78,0,0,1,.33.07.88.88,0,0,1,.44.44.71.71,0,0,1,.07.32.68.68,0,0,1-.07.32.8.8,0,0,1-.18.27.88.88,0,0,1-.59.24.8.8,0,0,1-.34-.07,1,1,0,0,1-.27-.17,1.27,1.27,0,0,1-.18-.27.83.83,0,0,1-.06-.32.87.87,0,0,1,.06-.32,1,1,0,0,1,.18-.26.88.88,0,0,1,.61-.25m-77.81-3a2.53,2.53,0,1,1,2.53,2.67,2.51,2.51,0,0,1-2.53-2.67m6.75,0V88.21H39.88v1A3.16,3.16,0,0,0,37.25,88a4.39,4.39,0,0,0,0,8.76,3.16,3.16,0,0,0,2.63-1.22v1h1.81Zm61.28,0a2.52,2.52,0,1,1,2.53,2.67A2.51,2.51,0,0,1,103,92.38m6.75,0V84.86h-1.81v4.36A3.18,3.18,0,0,0,105.27,88a4.39,4.39,0,0,0,0,8.76,3.18,3.18,0,0,0,2.64-1.22v1h1.81ZM64.2,89.63a2.07,2.07,0,0,1,2.11,2H62a2.13,2.13,0,0,1,2.21-2m0-1.63a4.38,4.38,0,0,0,.12,8.76,5,5,0,0,0,3.42-1.17l-.89-1.34a4,4,0,0,1-2.43.87,2.32,2.32,0,0,1-2.49-2h6.19c0-.23,0-.46,0-.7,0-2.6-1.62-4.38-4-4.38m21.89,4.38a2.53,2.53,0,1,1,2.53,2.67,2.51,2.51,0,0,1-2.53-2.67m6.75,0V88.21H91.07v1A3.17,3.17,0,0,0,88.44,88a4.39,4.39,0,0,0,0,8.76,3.17,3.17,0,0,0,2.63-1.22v1h1.81Zm-17,0a4.21,4.21,0,0,0,4.45,4.38,4.39,4.39,0,0,0,3-1l-.87-1.47a3.66,3.66,0,0,1-2.18.75,2.68,2.68,0,0,1,0-5.34,3.66,3.66,0,0,1,2.18.75L83.34,89a4.35,4.35,0,0,0-3-1,4.21,4.21,0,0,0-4.45,4.38M99.27,88a2.46,2.46,0,0,0-2.2,1.22v-1H95.28v8.34h1.81V91.88c0-1.38.59-2.15,1.78-2.15a2.86,2.86,0,0,1,1.13.21l.56-1.71A3.78,3.78,0,0,0,99.27,88m-48.61.87a6.26,6.26,0,0,0-3.4-.87c-2.11,0-3.47,1-3.47,2.67,0,1.36,1,2.2,2.88,2.46l.85.12c1,.14,1.47.41,1.47.88,0,.64-.67,1-1.9,1a4.46,4.46,0,0,1-2.78-.87l-.85,1.41a6,6,0,0,0,3.61,1.08c2.41,0,3.8-1.13,3.8-2.72s-1.1-2.23-2.91-2.5l-.86-.12c-.78-.1-1.41-.26-1.41-.82s.59-1,1.59-1a5.46,5.46,0,0,1,2.6.71ZM74.06,88a2.46,2.46,0,0,0-2.2,1.22v-1H70.07v8.34h1.81V91.88c0-1.38.59-2.15,1.78-2.15a2.86,2.86,0,0,1,1.13.21l.56-1.71A3.78,3.78,0,0,0,74.06,88m-15.47.21h-3V85.68H53.79v2.53H52.1v1.66h1.69v3.8c0,1.94.75,3.09,2.89,3.09A4.25,4.25,0,0,0,59,96.12l-.52-1.56a3.3,3.3,0,0,1-1.61.47c-.9,0-1.2-.56-1.2-1.39V89.87h3ZM31.47,96.55V91.32A3.11,3.11,0,0,0,28.19,88a3.23,3.23,0,0,0-2.93,1.49A3.06,3.06,0,0,0,22.5,88a2.75,2.75,0,0,0-2.44,1.24v-1H18.25v8.34h1.83V91.93a2,2,0,0,1,2-2.22c1.2,0,1.81.79,1.81,2.2v4.64h1.84V91.93a2,2,0,0,1,2-2.22c1.24,0,1.83.79,1.83,2.2v4.64Z" transform="translate(-13.08 -14)"/><path class="cls-2" d="M113.72,68.82V67.6h-.31l-.37.84-.37-.84h-.32v1.22h.23V67.9l.34.79h.24l.34-.79v.92Zm-2,0v-1h.41V67.6h-1v.21h.4v1Z" transform="translate(-13.08 -14)"/><path class="cls-3" d="M77.62,74.06H50.14V24.67H77.62Z" transform="translate(-13.08 -14)"/><path class="cls-4" d="M51.9,49.36a31.39,31.39,0,0,1,12-24.7,31.42,31.42,0,1,0,0,49.39,31.35,31.35,0,0,1-12-24.69" transform="translate(-13.08 -14)"/><path class="cls-5" d="M114.68,49.36A31.41,31.41,0,0,1,63.86,74.05a31.41,31.41,0,0,0,0-49.39,31.41,31.41,0,0,1,50.82,24.7" transform="translate(-13.08 -14)"/><g id="g4158"><polygon id="polygon9" class="cls-6" points="220.85 78.85 200.82 78.85 213.35 1.4 233.37 1.4 220.85 78.85"/><path id="path11" class="cls-6" d="M306.51,17.3a49.26,49.26,0,0,0-18-3.3c-19.77,0-33.69,10.54-33.78,25.62-.16,11.12,10,17.3,17.55,21,7.75,3.79,10.38,6.26,10.38,9.64-.08,5.19-6.26,7.58-12,7.58-8,0-12.27-1.23-18.78-4.12l-2.64-1.24-2.8,17.39c4.69,2.14,13.35,4,22.33,4.12,21,0,34.69-10.38,34.85-26.45.08-8.81-5.27-15.57-16.81-21.09-7-3.54-11.29-5.93-11.29-9.56.08-3.29,3.63-6.67,11.53-6.67a34,34,0,0,1,14.92,3l1.81.82,2.72-16.72Z" transform="translate(-13.08 -14)"/><path id="path13" class="cls-6" d="M333.13,65.41c1.65-4.45,8-21.67,8-21.67-.08.17,1.65-4.53,2.64-7.41l1.4,6.67s3.79,18.54,4.61,22.41Zm24.72-50H342.36c-4.78,0-8.41,1.4-10.47,6.43l-29.74,71h21s3.46-9.55,4.2-11.61h25.71c.58,2.72,2.39,11.61,2.39,11.61H374L357.85,15.4Z" transform="translate(-13.08 -14)"/><path id="path15" class="cls-6" d="M197.18,15.4,177.57,68.21,175.42,57.5c-3.62-12.36-15-25.78-27.68-32.46l18,67.72h21.18L218.35,15.4Z" transform="translate(-13.08 -14)"/><path id="path17" class="cls-7" d="M159.36,15.4H127.14L126.81,17c25.13,6.42,41.77,21.92,48.61,40.54l-7-35.6c-1.15-4.94-4.7-6.34-9.06-6.51Z" transform="translate(-13.08 -14)"/></g><path class="cls-8" d="M224,145.05H210.19a1.9,1.9,0,0,0-1.88,1.62l-5.57,35.27a1.14,1.14,0,0,0,1.14,1.32h6.56a1.9,1.9,0,0,0,1.89-1.61l1.5-9.52a1.91,1.91,0,0,1,1.89-1.61h4.35c9.07,0,14.3-4.39,15.66-13.08.62-3.8,0-6.78-1.75-8.88C232,146.27,228.55,145.05,224,145.05Zm1.59,12.89c-.75,4.93-4.53,4.93-8.17,4.93h-2.08l1.46-9.22a1.14,1.14,0,0,1,1.13-1h1c2.49,0,4.83,0,6,1.41C225.59,155,225.81,156.2,225.54,157.94Z" transform="translate(-13.08 -14)"/><path class="cls-8" d="M265.07,157.78h-6.59a1.15,1.15,0,0,0-1.13,1l-.29,1.85-.46-.67c-1.43-2.07-4.61-2.76-7.78-2.76-7.28,0-13.5,5.51-14.71,13.24a12.46,12.46,0,0,0,2.45,10.12c2,2.37,4.88,3.35,8.3,3.35A12.6,12.6,0,0,0,254,180.1l-.29,1.83a1.14,1.14,0,0,0,1.13,1.33h5.93a1.91,1.91,0,0,0,1.89-1.61l3.56-22.55A1.15,1.15,0,0,0,265.07,157.78Zm-9.18,12.82a7.35,7.35,0,0,1-7.43,6.29,5.1,5.1,0,0,1-5.46-6.41,7.37,7.37,0,0,1,7.38-6.34,5.53,5.53,0,0,1,4.39,1.8A5.66,5.66,0,0,1,255.89,170.6Z" transform="translate(-13.08 -14)"/><path class="cls-8" d="M300.15,157.78h-6.62a1.91,1.91,0,0,0-1.58.84l-9.13,13.44L279,159.14a1.91,1.91,0,0,0-1.83-1.36h-6.51a1.15,1.15,0,0,0-1.09,1.51l7.3,21.4L270,190.37a1.15,1.15,0,0,0,.94,1.81h6.61a1.93,1.93,0,0,0,1.57-.82l22-31.78A1.15,1.15,0,0,0,300.15,157.78Z" transform="translate(-13.08 -14)"/><path class="cls-9" d="M322.07,145.05H308.31a1.9,1.9,0,0,0-1.88,1.62l-5.57,35.27a1.14,1.14,0,0,0,1.13,1.32h7.06a1.33,1.33,0,0,0,1.32-1.13l1.58-10a1.91,1.91,0,0,1,1.89-1.61h4.35c9.06,0,14.29-4.39,15.66-13.08.62-3.8,0-6.78-1.76-8.88C330.14,146.27,326.67,145.05,322.07,145.05Zm1.59,12.89c-.75,4.93-4.52,4.93-8.17,4.93h-2.08l1.46-9.22a1.15,1.15,0,0,1,1.13-1H317c2.49,0,4.83,0,6,1.41C323.71,155,323.93,156.2,323.66,157.94Z" transform="translate(-13.08 -14)"/><path class="cls-9" d="M363.19,157.78h-6.58a1.15,1.15,0,0,0-1.14,1l-.29,1.85-.46-.67c-1.43-2.07-4.6-2.76-7.78-2.76-7.28,0-13.49,5.51-14.7,13.24a12.42,12.42,0,0,0,2.45,10.12c2,2.37,4.88,3.35,8.3,3.35a12.59,12.59,0,0,0,9.11-3.77l-.29,1.83a1.15,1.15,0,0,0,1.13,1.33h5.94a1.89,1.89,0,0,0,1.88-1.61l3.57-22.55A1.16,1.16,0,0,0,363.19,157.78ZM354,170.6a7.36,7.36,0,0,1-7.44,6.29,5.1,5.1,0,0,1-5.45-6.41,7.37,7.37,0,0,1,7.38-6.34,5.53,5.53,0,0,1,4.39,1.8A5.66,5.66,0,0,1,354,170.6Z" transform="translate(-13.08 -14)"/><path class="cls-9" d="M371,146l-5.64,35.92a1.14,1.14,0,0,0,1.13,1.32h5.68a1.89,1.89,0,0,0,1.88-1.61l5.57-35.27a1.15,1.15,0,0,0-1.13-1.33h-6.35A1.15,1.15,0,0,0,371,146Z" transform="translate(-13.08 -14)"/><path class="cls-8" d="M145.62,190.12l1-6.68-2.35-.06H133.13l7.78-49.3a.62.62,0,0,1,.22-.39.61.61,0,0,1,.41-.15h18.87c6.26,0,10.59,1.3,12.84,3.87a8.88,8.88,0,0,1,2.06,3.86,13.85,13.85,0,0,1,0,5.32l0,.15v1.36l1.06.6a7.32,7.32,0,0,1,2.14,1.63,7.64,7.64,0,0,1,1.74,3.9,16.62,16.62,0,0,1-.25,5.66,19.72,19.72,0,0,1-2.32,6.4,13,13,0,0,1-3.67,4,14.7,14.7,0,0,1-4.94,2.23,24.39,24.39,0,0,1-6.18.72h-1.47A4.41,4.41,0,0,0,157,177l-.11.6-1.86,11.77-.08.44a.37.37,0,0,1-.12.25.32.32,0,0,1-.19.07Z" transform="translate(-13.08 -14)"/><path class="cls-9" d="M177.36,146.9h0c-.06.36-.12.73-.19,1.1-2.49,12.78-11,17.19-21.88,17.19h-5.53a2.7,2.7,0,0,0-2.66,2.28h0l-2.83,18-.81,5.1a1.42,1.42,0,0,0,1.4,1.64h9.82a2.36,2.36,0,0,0,2.33-2l.1-.49L159,178l.12-.65a2.35,2.35,0,0,1,2.33-2h1.47c9.51,0,17-3.87,19.13-15,.91-4.67.44-8.57-2-11.31A9.32,9.32,0,0,0,177.36,146.9Z" transform="translate(-13.08 -14)"/><path class="cls-10" d="M174.76,145.86c-.38-.11-.78-.21-1.18-.3s-.82-.17-1.24-.24a31,31,0,0,0-4.88-.35H152.67a2.35,2.35,0,0,0-2.33,2l-3.15,19.93-.09.58a2.7,2.7,0,0,1,2.66-2.28h5.53c10.88,0,19.39-4.41,21.88-17.19.07-.37.13-.74.19-1.1a12.24,12.24,0,0,0-2.05-.86Z" transform="translate(-13.08 -14)"/><path class="cls-8" d="M150.34,147a2.35,2.35,0,0,1,2.33-2h14.79a29.83,29.83,0,0,1,4.88.36c.42.06.84.14,1.24.23s.8.19,1.18.3l.56.18a13.43,13.43,0,0,1,2,.86c.74-4.72,0-7.94-2.56-10.85-2.81-3.2-7.89-4.57-14.39-4.57H141.54a2.69,2.69,0,0,0-2.66,2.28L131,183.57a1.62,1.62,0,0,0,1.6,1.87h11.65l2.92-18.55Z" transform="translate(-13.08 -14)"/><path class="cls-11" d="M16.2,120h94.69v85H16.2Z" transform="translate(-13.08 -14)"/><path class="cls-12" d="M24.08,127.88v69.28H64.47c26.64,0,38.2-14.92,38.2-34.71s-11.56-34.57-38.2-34.57Z" transform="translate(-13.08 -14)"/><path d="M28.44,132.25h36c24.46,0,33.83,13.36,33.83,30.2,0,20.2-13.09,30.34-33.83,30.34h-36Zm3.5,3.49V189.3H64.47c19.65,0,30.34-9.16,30.34-26.85,0-18.18-11.59-26.71-30.34-26.71Z" transform="translate(-13.08 -14)"/><path d="M36.3,166.39H46.72v18.54H36.3Z" transform="translate(-13.08 -14)"/><circle cx="28.43" cy="143.05" r="6.47"/><path class="cls-13" d="M68.56,160.08v3H61.14V151h7.18v3H64.14v1.39h4v3h-4v1.65Zm1.3,3L73.49,151h4.27l3.63,12.05H78.27l-.68-2.33H73.66L73,163.08Zm4.68-5.33h2.17l-1-3.4h-.18l-1,3.4ZM82.9,151h3v9.05h4.45c-1.22-16.42-14.13-20-25.87-20H52V151h1.85c3.38,0,5.48,2.29,5.48,6s-2,6.07-5.48,6.07H52v21.86H64.48c19.07,0,25.72-8.86,26-21.86H82.9V151ZM52,154v6h1.85c1.29,0,2.48-.37,2.48-3.07s-1.32-3-2.48-3Z" transform="translate(-13.08 -14)"/></svg>