<?xml version="1.0" encoding="utf-8"?>
<!-- Generator: Adobe Illustrator 22.1.0, SVG Export Plug-In . SVG Version: 6.00 Build 0)  -->
<svg version="1.1" id="Layer_1" xmlns="http://www.w3.org/2000/svg" xmlns:xlink="http://www.w3.org/1999/xlink" x="0px" y="0px"
	 viewBox="0 0 121.9 125" style="enable-background:new 0 0 121.9 125;" xml:space="preserve">
<style type="text/css">
	.st0{fill:#FFFFFF;}
	.st1{fill:#BBB53D;}
	.st2{fill:#CA585F;}
	.st3{fill:none;stroke:#2C2E30;stroke-width:3.0516;stroke-miterlimit:2.6131;}
</style>
<polygon class="st0" points="27.6,33.4 59.7,11 92.5,34.7 59.8,55.4 "/>
<polygon class="st1" points="60,70.2 59.8,57.6 93,36.5 93,70.4 "/>
<polygon class="st2" points="27.8,70 27.8,37.1 59.5,56.9 59.5,70.4 "/>
<path class="st3" d="M27.2,26.5L59.7,3.6l32.8,22.9 M26.9,34.3L59.7,11l33.5,23.1 M27.4,70.7V35.8l32.4,21.1l32.8-21.1v34.9
	L27.4,70.7L27.4,70.7z M59.7,70.7V56.5"/>
<path d="M9.4,86.4H6.1v6.8c0,1.7,0.7,2,1.6,2c0.5,0,1.3-0.2,1.6-0.6l0.2,1.5c-0.6,0.4-1.5,0.6-2.2,0.6c-1.3,0-2.8-0.6-2.8-3.1v-7.2
	H2.1V85h2.4v-3.1H6V85h3.3v1.4H9.4z"/>
<path d="M11.7,77.9h1.6v8.9c0.7-1.3,2.4-2,3.8-2c2.8,0,4.2,1.5,4.2,4.4v7.2h-1.6v-6.3c0-2.6-0.7-4.1-2.9-4.1c-0.4,0-3.5,0.4-3.5,4.4
	v5.9h-1.6V77.9L11.7,77.9z"/>
<path d="M33.3,96.4c0-0.6,0-1.3,0-1.9h-0.2c-0.5,1.3-2.2,2.2-3.7,2.2c-2.9,0-4.4-1.7-4.4-4.6V85h1.6v6.3c0,2.6,0.7,4.1,3.1,4.1
	c0.4,0,3.5-0.4,3.5-4.4v-6h1.5v8.9c0,0.7,0.2,1.7,0.2,2.6L33.3,96.4L33.3,96.4z"/>
<path d="M39.7,81.8c-0.6,0-1.1-0.6-1.1-1.3c0-0.6,0.5-1.1,1.1-1.1c0.5,0,1.3,0.6,1.3,1.1C41,81.3,40.2,81.8,39.7,81.8L39.7,81.8z
	 M39,85h1.6v11.5H39V85L39,85z"/>
<path d="M50.3,87.7C49.9,86.8,49,86,47.9,86s-2.4,0.6-2.4,1.8c0,1.1,0.7,1.5,2.2,1.8l1.6,0.4c1.7,0.4,2.8,1.5,2.8,3.1
	c0,2.4-2.2,3.5-4.4,3.5c-1.6,0-3.3-0.7-4.4-2.2l1.5-1.1c0.7,1.1,1.6,1.9,2.9,1.9s2.7-0.7,2.7-2c0-1.1-1.1-1.5-2.2-1.8L46.7,91
	c-0.9-0.2-2.9-0.7-2.9-3c0-2.4,2-3.3,4.2-3.3c1.5,0,2.9,0.6,3.7,2L50.3,87.7L50.3,87.7z"/>
<polygon points="55.3,85 57.8,94.2 60.9,85 62.6,85 65.5,94.2 68.3,85 70.1,85 66.4,96.4 64.8,96.4 61.7,87 58.7,96.4 56.9,96.4 
	53.3,85 "/>
<path d="M73.4,81.8c-0.7,0-1.3-0.6-1.3-1.3c0-0.6,0.5-1.1,1.3-1.1c0.5,0,1.1,0.6,1.1,1.1C74.5,81.3,74,81.8,73.4,81.8L73.4,81.8z
	 M72.5,85h1.6v11.5h-1.6V85L72.5,85z"/>
<path d="M79.5,85c0.2,0.6,0.2,1.3,0.2,1.9c0.7-1.3,2.2-2,3.8-2c2.8,0,4.2,1.5,4.2,4.4v7.2h-1.6v-6.3c0-2.6-0.7-4.1-3.1-4.1
	c-0.2,0-3.3,0.4-3.3,4.4v5.9H78v-8.9c0-0.7,0-1.7-0.2-2.6L79.5,85L79.5,85z"/>
<polygon points="93,90.1 98.3,85 100.7,85 95.2,90.1 101.4,96.4 98.9,96.4 93,90.3 93,96.4 91.4,96.4 91.4,77.9 93,77.9 "/>
<path d="M104.2,91.1c0.2,2.4,2,4.3,4.2,4.3c1.7,0,2.9-1.1,3.7-2l1.1,0.9c-1.3,1.9-2.9,2.6-4.8,2.6c-3.5,0-5.9-2.6-5.9-6.1
	s2.4-5.9,5.7-5.9c3.5,0,5.5,2.6,5.5,5.5v0.7H104.2L104.2,91.1z M111.9,89.8c0-2-1.3-3.7-3.7-3.7c-2,0-4,1.8-4,3.7H111.9L111.9,89.8z
	"/>
<polygon points="116.8,77.9 118.5,77.9 118.5,96.4 116.8,96.4 "/>
<polygon points="12.4,105.7 14.9,114.9 15.1,114.9 18.1,105.7 19.7,105.7 22.8,114.9 25.4,105.7 27.2,105.7 23.7,116.9 21.9,116.9 
	19,107.7 18.8,107.7 15.9,116.9 14,116.9 10.5,105.7 "/>
<path d="M36.6,110.1v-0.4c0-2-0.9-3-2.8-3c-1.5,0-2.6,0.4-3.5,1.3l-1.1-1.1c1.1-1.1,2.7-1.7,4.9-1.7s4,1.3,4,4.1v5.2
	c0,0.7,0.2,1.8,0.2,2.4h-1.5c-0.2-0.6-0.2-1.1-0.2-1.8c-0.9,1.7-2.2,2.2-4,2.2c-2,0-3.8-1.1-3.8-3.3c0-3.7,4.2-3.9,7-3.9L36.6,110.1
	L36.6,110.1z M35.8,111.4c-1.6,0-5.3,0-5.3,2.4c0,1.5,1.5,2,2.7,2c2.2,0,3.3-1.7,3.3-3.7v-0.7L35.8,111.4L35.8,111.4z"/>
<path d="M49.2,110.1v-0.4c0-2-0.9-3-2.9-3c-1.3,0-2.4,0.4-3.5,1.3l-0.9-1.1c1.1-1.1,2.6-1.7,4.8-1.7s4.2,1.3,4.2,4.1v5.2
	c0,0.7,0,1.8,0.2,2.4h-1.7c0-0.6-0.2-1.1-0.2-1.8c-0.9,1.7-2.2,2.2-4,2.2c-2,0-3.8-1.1-3.8-3.3c0-3.7,4.4-3.9,7.1-3.9L49.2,110.1
	L49.2,110.1z M48.3,111.4c-1.5,0-5.1,0-5.1,2.4c0,1.5,1.3,2,2.6,2c2.4,0,3.5-1.7,3.5-3.7v-0.7L48.3,111.4L48.3,111.4z"/>
<path d="M54.7,109.2c0-1.1,0-1.8-0.2-3.5h1.6v2c0.5-1.3,1.6-2.4,3.7-2.4c0.4,0,0.9,0,1.1,0.2l-0.2,1.5c-0.2,0-0.5,0-0.9,0
	c-2.6,0-3.5,2-3.5,3.7v6.3h-1.7L54.7,109.2L54.7,109.2z"/>
<path d="M62.6,98.6h1.5v8.9h0.2c0.9-1.5,2.9-2.2,4.4-2.2c3.5,0,6,2.6,6,6.1c0,3.3-2.6,5.9-6,5.9c-1.5,0-3.5-0.7-4.4-2.2h-0.2v1.8
	h-1.5V98.6L62.6,98.6z M68.6,106.8c-2.7,0-4.6,2-4.6,4.6c0,2.4,1.8,4.4,4.6,4.4c2.6,0,4.2-2,4.2-4.4
	C72.9,108.8,71.2,106.8,68.6,106.8L68.6,106.8z"/>
<path d="M82.8,117.3c-3.5,0-6-2.6-6-5.9c0-3.5,2.6-6.1,6-6.1c3.5,0,6,2.6,6,6.1C88.8,114.7,86.2,117.3,82.8,117.3L82.8,117.3z
	 M82.8,106.8c-2.6,0-4.2,2-4.2,4.6c0,2.4,1.7,4.4,4.2,4.4c2.6,0,4.2-2,4.2-4.4C87,108.8,85.3,106.8,82.8,106.8L82.8,106.8z"/>
<path d="M91.9,109.2c0-1.1-0.2-1.8-0.2-3.5h1.7v2c0.5-1.3,1.6-2.4,3.7-2.4c0.4,0,0.7,0,1.1,0.2L98,107c-0.2,0-0.5,0-0.9,0
	c-2.6,0-3.7,2-3.7,3.7v6.3h-1.5V109.2L91.9,109.2z"/>
<path d="M100.2,119.3c0.9,1.3,2.6,2,4.4,2c3.1,0,4.4-2,4.4-4.4v-2h-0.2c-0.9,1.5-2.6,2-4.2,2c-3.3,0-5.9-2.4-5.9-5.7
	c0-3.3,2.4-5.9,5.9-5.9c1.3,0,2.9,0.4,4.2,2.2h0.2v-1.8h1.5V117c0,2.4-0.9,5.9-6,5.9c-2.2,0-4-0.7-5.3-2.2L100.2,119.3L100.2,119.3z
	 M104.7,115.5c2.2,0,4.2-1.7,4.2-4.3c0-2.4-1.6-4.4-4.2-4.4c-2.4,0-4.2,2-4.2,4.4C100.5,113.6,102.4,115.5,104.7,115.5L104.7,115.5z
	"/>
</svg>
