<?xml version="1.0" encoding="utf-8"?>
<!-- Generator: Adobe Illustrator 22.1.0, SVG Export Plug-In . SVG Version: 6.00 Build 0)  -->
<svg version="1.1"
	 id="Layer_1" xmlns:cc="http://creativecommons.org/ns#" xmlns:dc="http://purl.org/dc/elements/1.1/" xmlns:inkscape="http://www.inkscape.org/namespaces/inkscape" xmlns:rdf="http://www.w3.org/1999/02/22-rdf-syntax-ns#" xmlns:sodipodi="http://sodipodi.sourceforge.net/DTD/sodipodi-0.dtd" xmlns:svg="http://www.w3.org/2000/svg"
	 xmlns="http://www.w3.org/2000/svg" xmlns:xlink="http://www.w3.org/1999/xlink" x="0px" y="0px" viewBox="0 0 100 80"
	 style="enable-background:new 0 0 100 80;" xml:space="preserve">
<g transform="translate(0,-952.36218)">
	<path d="M50.3,1006.2c1-0.1,2-0.5,2.8-1.2l21-18c2.2-1.7,2.5-4.9,0.8-7c-1.7-2.2-4.9-2.5-7-0.8c-0.1,0.1-0.2,0.1-0.2,0.2
		l-17.8,15.2L32,979.4c-2-1.9-5.2-1.7-7.1,0.3s-1.7,5.2,0.3,7.1c0.1,0.1,0.2,0.1,0.2,0.2l21,18C47.6,1005.9,48.9,1006.3,50.3,1006.2
		z"/>
</g>
</svg>
