<?xml version="1.0" encoding="utf-8"?>
<!-- Generator: Adobe Illustrator 22.1.0, SVG Export Plug-In . SVG Version: 6.00 Build 0)  -->
<svg version="1.1"
	 id="Layer_1" xmlns:cc="http://creativecommons.org/ns#" xmlns:dc="http://purl.org/dc/elements/1.1/" xmlns:inkscape="http://www.inkscape.org/namespaces/inkscape" xmlns:rdf="http://www.w3.org/1999/02/22-rdf-syntax-ns#" xmlns:sodipodi="http://sodipodi.sourceforge.net/DTD/sodipodi-0.dtd" xmlns:svg="http://www.w3.org/2000/svg"
	 xmlns="http://www.w3.org/2000/svg" xmlns:xlink="http://www.w3.org/1999/xlink" x="0px" y="0px" viewBox="0 0 100 95.8"
	 style="enable-background:new 0 0 100 95.8;" xml:space="preserve">
<g transform="translate(0,-952.36218)">
	<path d="M8,962.4c-1.7,0-3,1.3-3,3s1.3,3,3,3h9.6l10.3,48.7c0.4,1.8,1.6,3.4,3.1,3.3h50c1.6,0,3-1.4,3-3s-1.5-3-3-3H33.5l-1.3-6H85
		c1.3,0,2.6-1,2.9-2.3l7-30c0.4-1.7-1.1-3.6-2.9-3.7H24.6l-1.6-7.6c-0.3-1.3-1.6-2.4-2.9-2.4H8z M25.8,978.4h62.4l-5.6,24H30.9
		L25.8,978.4z M41,1022.4c-5.5,0-10,4.5-10,10c0,5.5,4.5,10,10,10s10-4.5,10-10S46.5,1022.4,41,1022.4z M71,1022.4
		c-5.5,0-10,4.5-10,10c0,5.5,4.5,10,10,10s10-4.5,10-10S76.5,1022.4,71,1022.4z M41,1028.4c2.2,0,4,1.8,4,4s-1.8,4-4,4
		c-2.2,0-4-1.8-4-4S38.8,1028.4,41,1028.4z M71,1028.4c2.2,0,4,1.8,4,4s-1.8,4-4,4c-2.2,0-4-1.8-4-4S68.8,1028.4,71,1028.4z"/>
</g>
</svg>
