<?xml version="1.0" encoding="utf-8"?>
<!-- Generator: Adobe Illustrator 22.1.0, SVG Export Plug-In . SVG Version: 6.00 Build 0)  -->
<svg version="1.1" id="Layer_1" xmlns="http://www.w3.org/2000/svg" xmlns:xlink="http://www.w3.org/1999/xlink" x="0px" y="0px"
	 viewBox="0 0 92.3 92.3" style="enable-background:new 0 0 92.3 92.3;" xml:space="preserve">
<style type="text/css">
	.st0{stroke:#000000;stroke-width:3;stroke-miterlimit:10;}
</style>
<path class="st0" d="M46.1,90.2C21.8,90.2,2,70.4,2,46.1S21.8,1.9,46.1,1.9S90.2,21.7,90.2,46S70.4,90.2,46.1,90.2z M46.1,4.9
	C23.4,4.9,5,23.4,5,46.1s18.4,41.1,41.1,41.1s41.1-18.4,41.1-41.1S68.8,4.9,46.1,4.9z"/>
<polygon class="st0" points="16.7,69 14,67.6 27,42.3 34.4,45.2 47.7,25.3 57,36.1 68.9,37.6 79.5,67.8 76.6,68.8 66.7,40.3 
	55.5,38.9 48,30.2 35.6,48.9 28.5,46.1 "/>
<path class="st0" d="M77.7,69.9c-4.2,0-8.2-1.5-10.5-4c-2.3,2.4-6.3,4-10.5,4c-4.3,0-8.3-1.6-10.7-4.1c-2.3,2.5-6.3,4.1-10.7,4.1
	c-4.3,0-8.3-1.5-10.6-4c-2.3,2.5-6.3,4-10.6,4c-1.5,0-3-0.2-4.4-0.6l0.7-2.9c1.2,0.3,2.4,0.5,3.7,0.5c4,0,7.6-1.6,9.2-4l0.4-0.7h2.1
	l0.4,0.7c1.5,2.4,5.2,4,9.1,4c4,0,7.6-1.6,9.2-4l0.4-0.7h2.1l0.4,0.7c1.5,2.4,5.2,4,9.1,4c4,0,7.6-1.6,9.2-4l0.5-0.7h1.9l0.4,0.7
	c1.5,2.4,5.2,4,9.1,4c1.4,0,2.7-0.2,3.9-0.5l0.8,2.9C80.9,69.6,79.4,69.9,77.7,69.9z"/>
</svg>
